<svg data-v-0dd9719b="" version="1.0" xmlns="http://www.w3.org/2000/svg" xmlns:xlink="http://www.w3.org/1999/xlink" width="100%" height="100%" viewBox="0 0 340.000000 250.000000" preserveAspectRatio="xMidYMid meet" color-interpolation-filters="sRGB" style="margin: auto;">   <g data-v-0dd9719b="" fill="#ff51f9" class="icon-text-wrapper icon-svg-group iconsvg" transform="translate(50.88983917236328,66.1941146850586)"><g class="iconsvg-imagesvg" transform="matrix(1,0,0,1,0,19.719610005785462)" mask="url(#b445fa37-4670-4e3b-acdf-45ef49c61aae)" opacity="0.014019499710726857"><g><rect fill="#ff51f9" fill-opacity="0" stroke-width="2" x="0" y="0" width="117.60000000000005" height="117.61176117611767" class="image-rect"></rect> <svg x="0" y="0" width="117.60000000000005" height="117.61176117611767" filtersec="colorsb4612053124" class="image-svg-svg primary" style="overflow: visible;"><svg version="1.1" id="图层_1" xmlns="http://www.w3.org/2000/svg" xmlns:xlink="http://www.w3.org/1999/xlink" x="0px" y="0px" viewBox="0.6700000166893005 1.1700000762939453 98.81999969482422 98.83000183105469" enable-background="new 0 0 101 100" xml:space="preserve">
<polygon fill="#4D4D4D" points="86.04,50.59 43.35,93.27 0.67,50.59 14.13,50.59 43.35,79.81 43.48,79.68 72.56,50.59 86.04,50.59 
	"></polygon>
<polygon fill="#1E8276" points="50.08,100 92.77,57.31 50.08,14.63 50.08,28.09 79.3,57.31 79.17,57.44 50.08,86.52 50.08,100 "></polygon>
<polygon fill="#808080" points="99.49,50.59 56.81,7.9 14.12,50.59 27.58,50.59 56.81,21.36 56.94,21.49 86.01,50.59 99.49,50.59 
	"></polygon>
<polygon fill="#4FCFB5" points="50.08,86.55 7.39,43.86 50.08,1.17 50.08,14.63 20.86,43.86 20.99,43.99 50.08,73.07 50.08,86.55 
	"></polygon>
<polygon fill="#4D4D4D" points="50.29,86.33 43.35,93.27 0.67,50.59 14.13,50.59 43.35,79.81 43.48,79.68 50.29,72.87 50.29,86.33 
	"></polygon>
</svg></svg> <!----></g><rect v-gra="id" width="129.5999984741211" height="129.6117706298828" transform="translate(-6, -6)" style="pointer-events:none;" fill="url(#UrGxDVeHrWwTBeV_XXdsG)"></rect></g> <g transform="translate(124.5999984741211,25.127826690673828)"><g data-gra="path-name" fill-rule="" class="tp-name iconsvg-namesvg" fill="url(#f9bdf595-171c-440e-b9e8-5f4d1346d5cb)" opacity="0" transform="matrix(1,0,0,1,0,20)"><g transform="scale(1)"><g><path d="M15.75 0.35C24.88 0.35 28.87-3.19 28.87-11.12L28.87-27.37C28.87-35.5 25.03-38.84 15.75-38.84 6.48-38.84 2.94-35.5 2.94-27.37L2.94-11.12C2.94-3.19 6.63 0.35 15.75 0.35ZM15.75-5.73C10.77-5.73 9.82-7.83 9.82-11.47L9.82-27.02C9.82-30.51 10.77-32.75 15.75-32.75 21.09-32.75 21.99-30.51 21.99-27.02L21.99-11.47C21.99-7.83 20.74-5.73 15.75-5.73ZM35.45-38.39L35.45 0 42.48 0 42.48-11.77 45.12-11.77C54.24-11.77 58.73-15.45 58.73-23.38L58.73-26.92C58.73-35.05 54.39-38.39 45.12-38.39ZM42.43-18.4L42.43-32.11 45.22-32.11C50.55-32.11 51.75-30.21 51.75-26.57L51.75-23.73C51.75-20.09 50.1-18.4 45.12-18.4ZM64.31-38.39L64.31 0.05 87.1 0.05 87.1-6.23 71.19-6.23 71.19-16.35 84.15-16.35 84.15-22.53 71.19-22.53 71.19-32.41 86.4-32.41 86.4-38.39ZM116.56-38.34L109.73-38.34 109.73-29.26 110.48-13.06 99.21-38.34 92.38-38.34 92.38 0 99.21 0 99.21-9.77 98.61-24.33 109.88 0 116.56 0Z" transform="translate(-2.9399967193603516, 38.84000015258789)"></path></g> <!----> <!----> <!----> <!----> <!----> <!----> <g data-gra="path-name-1" fill="url(#30f451c5-17df-4fc6-a15e-04ed45f8f033)" transform="translate(0,42.189998626708984)"><g transform="scale(0.9683)"><path d="M19.31 0L13.62-9.88C16.75-10.89 18.1-12.98 18.1-16.82L18.1-18.17C18.1-23.66 15.17-25.96 8.9-25.96L2.36-25.96 2.36 0 7.01 0 7.01-9.13 8.73-9.13 13.89 0ZM6.98-13.42L6.98-21.67 8.97-21.67C12.57-21.67 13.21-20.39 13.21-17.93L13.21-17.06C13.21-14.6 12.27-13.42 8.9-13.42ZM27.07-25.92L22.38-25.92 22.38 0.03 27.07 0.03ZM46.96-25.96L31.75-25.96 31.75 0.03 36.37 0.03 36.37-11.02 45.34-11.02 45.34-15.24 36.37-15.24 36.37-21.71 46.96-21.71ZM55.08-25.92L50.39-25.92 50.39 0.03 55.08 0.03ZM76.11-25.92L71.49-25.92 71.49-19.79 72-8.83 64.38-25.92 59.76-25.92 59.76 0 64.38 0 64.38-6.61 63.98-16.45 71.6 0 76.11 0ZM98.19-25.96L93.57-25.96 93.57-14.93 85.48-14.93 85.48-25.96 80.8-25.96 80.8 0.03 85.48 0.03 85.48-10.69 93.57-10.69 93.57 0 98.19 0ZM112.62-25.92L108-25.92 100.82 0 105.61 0 106.96-4.58 113.6-4.58 114.91 0 119.7 0ZM108.1-9.13L110.26-18.74 112.42-9.13Z" transform="translate(-2.3600001335144043, 25.959999084472656)"></path></g></g></g></g> <!----></g></g><defs v-gra="od"><linearGradient x1="0" y1="1" x2="0" y2="0" id="f9bdf595-171c-440e-b9e8-5f4d1346d5cb"><stop offset="0%" stop-color="#ff51f9"></stop><stop offset="50%" stop-color="#a348ff"></stop><stop offset="100%" stop-color="#3978ff"></stop></linearGradient><filter id="42443b3f1de60f6b6fd3b6a9844b4764" filterUnits="objectBoundingBox"><feColorMatrix type="matrix" values="0 0 0 0 0.99609375  0 0 0 0 0.99609375  0 0 0 0 0.99609375  0 0 0 1 0"></feColorMatrix></filter><linearGradient x1="0" y1="1" x2="0" y2="0" id="30f451c5-17df-4fc6-a15e-04ed45f8f033"><stop offset="0%" stop-color="#ff51f9"></stop><stop offset="50%" stop-color="#a348ff"></stop><stop offset="100%" stop-color="#3978ff"></stop></linearGradient><filter id="42443b3f1de60f6b6fd3b6a9844b4764" filterUnits="objectBoundingBox"><feColorMatrix type="matrix" values="0 0 0 0 0.99609375  0 0 0 0 0.99609375  0 0 0 0 0.99609375  0 0 0 1 0"></feColorMatrix></filter></defs><defs v-gra="id"><filter id="8b1b3ab2-421a-439d-bb5a-4d7539f28daa" filterUnits="userSpaceOnUse"><feColorMatrix type="matrix" values="0 0 0 0 0.99609375  0 0 0 0 0.99609375  0 0 0 0 0.99609375  0 0 0 1 0"></feColorMatrix></filter><linearGradient x1="0" y1="1" x2="0" y2="0" id="UrGxDVeHrWwTBeV_XXdsG"><stop offset="0%" stop-color="#ff51f9"></stop><stop offset="50%" stop-color="#a348ff"></stop><stop offset="100%" stop-color="#3978ff"></stop></linearGradient><filter id="42443b3f1de60f6b6fd3b6a9844b4764" filterUnits="objectBoundingBox"><feColorMatrix type="matrix" values="0 0 0 0 0.99609375  0 0 0 0 0.99609375  0 0 0 0 0.99609375  0 0 0 1 0"></feColorMatrix></filter></defs><mask v-gra="im" id="b445fa37-4670-4e3b-acdf-45ef49c61aae"><g class="iconsvg-imagesvg" filter="url(#8b1b3ab2-421a-439d-bb5a-4d7539f28daa)"><g><rect fill="#ff51f9" fill-opacity="0" stroke-width="2" x="0" y="0" width="117.60000000000005" height="117.61176117611767" class="image-rect"></rect> <svg x="0" y="0" width="117.60000000000005" height="117.61176117611767" filtersec="colorsb4612053124" class="image-svg-svg primary" style="overflow: visible;"><svg version="1.1" id="图层_1" xmlns="http://www.w3.org/2000/svg" xmlns:xlink="http://www.w3.org/1999/xlink" x="0px" y="0px" viewBox="0.6700000166893005 1.1700000762939453 98.81999969482422 98.83000183105469" enable-background="new 0 0 101 100" xml:space="preserve">
<polygon fill="#4D4D4D" points="86.04,50.59 43.35,93.27 0.67,50.59 14.13,50.59 43.35,79.81 43.48,79.68 72.56,50.59 86.04,50.59 
	"></polygon>
<polygon fill="#1E8276" points="50.08,100 92.77,57.31 50.08,14.63 50.08,28.09 79.3,57.31 79.17,57.44 50.08,86.52 50.08,100 "></polygon>
<polygon fill="#808080" points="99.49,50.59 56.81,7.9 14.12,50.59 27.58,50.59 56.81,21.36 56.94,21.49 86.01,50.59 99.49,50.59 
	"></polygon>
<polygon fill="#4FCFB5" points="50.08,86.55 7.39,43.86 50.08,1.17 50.08,14.63 20.86,43.86 20.99,43.99 50.08,73.07 50.08,86.55 
	"></polygon>
<polygon fill="#4D4D4D" points="50.29,86.33 43.35,93.27 0.67,50.59 14.13,50.59 43.35,79.81 43.48,79.68 50.29,72.87 50.29,86.33 
	"></polygon>
</svg></svg> <!----></g></g></mask></svg>