<svg width="109" height="42" viewBox="0 0 693 236" fill="none" xmlns="http://www.w3.org/2000/svg" class="[@media(max-width:500px)]:hidden block" data-sentry-element="svg" data-sentry-source-file="NewLogo.tsx" data-sentry-component="NewLogo"><path d="M690.313 142.932C689.653 142.089 688.434 141.959 687.624 142.651C683.395 146.223 669.828 157.351 653.432 157.401C637.026 157.441 641.885 135.889 643.625 127.892C646.464 114.848 650.183 100.911 650.183 100.911L679.386 101.252C682.435 101.283 685.125 99.5066 686.254 96.7273L687.414 93.8677C687.804 93.0249 687.144 92.0415 686.214 92.0315L652.173 91.9412L662.72 46.4386C663.32 44.0405 660.911 41.8432 658.591 42.676L647.414 46.6994C643.085 48.2547 638.826 51.7865 637.606 56.2515L628.938 91.9713L612.992 92.0014C611.693 92.0014 610.933 93.376 611.653 94.4095L615.322 99.6671C615.892 100.48 616.841 100.971 617.861 100.971L627.329 100.951L620.221 136.32C620.221 136.32 604.634 161.565 579.691 161.565C563.205 161.565 560.875 150.748 560.875 150.748C560.875 150.748 572.552 145.38 583.7 138.176C593.247 132.006 601.515 126.066 604.105 115.3C606.644 104.724 601.045 89.6836 576.221 89.6836C558.346 89.6836 542.44 102.035 537.671 115.41C530.443 135.688 535.092 149.484 535.092 149.484C535.092 149.484 529.013 152.585 519.405 156.719C510.568 160.521 503.819 162.879 503.819 162.879C503.819 162.879 514.737 157.26 520.825 131.263C525.814 109.952 517.286 91.4797 496.541 91.4797C491.122 91.4797 486.174 94.0985 486.174 94.0985C486.174 94.0985 497.261 82.2587 504.859 63.9774C511.028 49.1477 517.376 26 491.382 26C473.677 26 462.36 44.472 459.1 61.4288C458.88 62.5928 439.535 147.989 439.535 147.989C439.535 147.989 432.197 158.655 424.839 158.655C414.901 158.655 419.81 145.35 420.72 140.243C422.369 130.922 426.458 120.256 427.568 112.871C429.278 101.453 419.57 91.1486 402.084 91.1686C386.838 91.1887 379.23 100.139 379.23 100.139C379.23 100.139 377.81 92.182 368.923 92.182C360.035 92.182 356.736 97.55 356.446 98.7641C354.536 106.711 348.198 128.654 345.988 136.28C345.289 138.708 342.129 150.839 342.129 150.839C342.129 150.839 334.641 158.545 328.523 158.545C317.865 158.545 323.484 139.28 324.953 132.718C327.453 121.54 333.921 102.145 335.521 97.8209C335.781 97.1286 335.651 96.3661 335.181 95.7741C333.601 93.7573 329.582 90.5566 324.104 89.8643C320.345 89.3826 316.965 90.5766 314.806 92.3024C309.617 96.4564 307.678 105.928 306.398 110.584C302.729 123.939 296.541 149.645 296.541 149.645C296.541 149.645 287.903 157.792 282.404 157.792C275.056 157.792 274.526 152.585 274.846 145.882C275.106 140.293 283.424 112.831 286.393 103.189C287.213 100.51 286.293 97.5601 284.004 95.9447C280.714 93.6269 277.145 91.9914 265.128 91.9914C234.056 91.9914 211.262 109.229 201.494 126.788C187.328 152.244 193.246 180.89 219.25 180.89C239.065 180.89 251.432 160.632 251.432 160.632C251.432 160.632 250.052 180.077 267.868 180.017C280.644 179.977 295.511 163.01 295.511 163.01C295.511 163.01 298.65 180.237 313.966 180.197C328.633 180.147 342.599 162.287 342.599 162.287C342.599 162.287 341.809 166.511 346.498 172.762C350.327 177.859 355.066 180.097 358.745 180.177C360.195 180.207 361.444 179.264 361.724 177.92C363.654 168.588 371.582 138.417 374.631 125.975C378.25 111.226 386.158 102.858 394.316 102.848C401.305 102.838 405.314 108.547 403.704 117.266C402.724 122.584 393.577 152.083 393.707 160.511C393.847 168.94 400.365 179.244 414.351 179.194C430.168 179.144 443.104 160.471 443.104 160.471C443.104 160.471 448.653 181 477.256 181C487.613 181 505.169 175.451 518.546 169.491C531.093 163.893 538.871 159.678 538.871 159.678C538.871 159.678 544.259 181 571.533 181C598.806 181 618.841 156.518 618.841 156.518C618.841 156.518 624.09 179.395 652.353 179.395C669.119 179.395 683.935 169.722 690.073 162.227C694.842 156.397 692.933 146.304 690.333 142.982L690.313 142.932ZM254.261 133.862C249.132 150.046 238.045 157.511 229.867 157.531C217.17 157.551 216.5 137.042 226.298 123.627C241.694 102.567 263.309 102.306 263.309 102.306C263.309 102.306 257.14 124.801 254.261 133.872V133.862ZM477.286 73.7101C482.575 50.3718 489.113 39.9769 496.471 39.9769C504.689 39.9769 498.621 55.3786 493.622 67.3487C484.324 89.6335 471.527 100.129 471.527 100.129C471.527 100.129 474.007 88.1987 477.286 73.7101ZM496.471 135.648C491.282 151.23 480.275 161.595 471.877 158.785C463.479 155.976 460.89 141.066 466.089 125.474C471.287 109.891 482.295 99.5467 490.683 102.366C499.071 105.176 501.66 120.076 496.471 135.648ZM561.195 114.617C565.054 107.212 572.682 101.413 578.281 102.176C582.08 102.687 584.559 104.804 584.869 110.313C585.199 116.112 581.27 122.845 575.462 127.501C567.054 134.233 556.996 138.668 556.996 138.668C556.996 138.668 554.457 127.551 561.195 114.627V114.617Z" fill="white" data-sentry-element="path" data-sentry-source-file="NewLogo.tsx"></path><path d="M336.435 58.1502C330.785 56.3702 325.935 57.4102 323.605 59.1202C320.825 61.1602 319.215 64.6902 318.955 68.4902C318.465 75.8202 323.785 82.1502 330.835 82.6202C336.125 82.9802 341.965 79.7902 344.025 75.0602C346.335 69.7602 346.745 61.3902 336.425 58.1502H336.435Z" fill="white" data-sentry-element="path" data-sentry-source-file="NewLogo.tsx"></path><path d="M324.405 49.8602L324.275 24.7202C324.275 23.8602 325.385 23.4802 325.895 24.1702L335.705 37.2802C335.985 37.6502 336.495 37.7302 336.885 37.4702L347.065 30.5002C347.635 30.1102 348.395 30.5402 348.375 31.2502L348.015 41.9102C347.995 42.4902 348.505 42.9202 349.045 42.7902L366.515 38.5802C367.295 38.3902 367.835 39.4102 367.275 40.0202L350.595 58.1702C350.255 58.5402 349.715 58.5602 349.385 58.2202C347.985 56.8202 344.185 53.4302 338.665 51.8702C333.005 50.2802 327.525 50.5502 325.365 50.7502C324.845 50.8002 324.415 50.4102 324.405 49.8802V49.8602Z" fill="white" data-sentry-element="path" data-sentry-source-file="NewLogo.tsx"></path><path d="M193.766 206.25C152.056 193.76 138.196 145.09 138.196 145.09C138.196 145.09 141.926 144.33 143.396 144.09C181.656 137.85 215.306 103.42 212.066 59.75C210.436 37.74 200.695 20.73 181.245 9.71002C167.855 2.13002 154.246 0 140.176 0C94.5155 0 53.3855 41.37 53.3855 41.37C53.3855 41.37 40.4355 26.01 34.6555 21.35C30.1855 17.75 24.7955 16.19 18.9255 17.25C10.8355 18.72 4.9155 24.67 2.5855 27.38C1.9555 28.11 2.05552 29.2 2.79552 29.81C6.34552 32.74 16.2255 40.05 20.7855 44.6C26.3855 50.2 36.2755 61.46 36.2755 61.46C36.2755 61.46 22.0255 81.29 16.1255 92.23C5.74551 111.48 -0.834486 131.92 0.0855137 154.19C0.705514 169.14 12.3955 207.57 49.5655 207.57C99.4655 207.57 107.506 153.86 99.4155 125.37C92.3655 100.54 82.9555 79.21 68.9355 57.39C77.9455 46.79 95.6955 32.6 111.576 27.08C123.406 22.96 135.496 20.6 148.066 22.43C175.456 26.41 185.736 49.16 186.236 66.93C187.236 102.77 154.696 131.49 119.016 126.4C110.736 125.22 106.785 128.95 107.525 137.26C107.565 137.77 107.656 138.28 107.756 138.79C109.566 147.86 112.966 156.37 117.106 164.56C128.806 187.75 144.486 207.64 166.456 221.92C180.336 230.94 195.566 237.11 212.386 234.66C235.676 231.26 241.696 211.69 243.916 201.39C244.366 199.3 242.126 197.66 240.266 198.72C231.906 203.51 213.195 212.06 193.805 206.25H193.766ZM76.4455 140.78C77.4055 149.3 76.7455 157.76 72.8755 165.61C67.7055 176.12 59.4455 182.26 47.4555 181.98C35.7055 181.7 27.7855 175.3 23.1055 164.85C18.6955 155.01 19.0155 144.71 21.1055 134.42C24.4455 118.02 31.9255 103.4 40.8255 89.43C43.3755 85.43 46.0955 81.54 49.0455 77.14C62.2155 97 73.7555 117 76.4355 140.78H76.4455Z" fill="white" data-sentry-element="path" data-sentry-source-file="NewLogo.tsx"></path><path d="M33.3055 131.73C26.8455 140.5 26.4855 156.35 33.1355 165.12C37.9955 171.54 48.7955 174.46 54.3255 172.3C46.3555 169.67 41.2155 163.78 37.6755 156.9C34.1355 150.02 31.2155 141.61 33.3055 131.72V131.73Z" fill="white" data-sentry-element="path" data-sentry-source-file="NewLogo.tsx"></path></svg>