<svg width="212" height="34" viewBox="0 0 212 34" fill="none" xmlns="http://www.w3.org/2000/svg">
<path d="M56.2859 21.5923C57.7317 23.1004 59.9627 24.3592 62.792 24.3592C65.185 24.3592 66.3566 23.225 66.3566 22.0534C66.3566 20.5204 64.5743 19.9969 62.2186 19.4485C58.8783 18.6757 54.5783 17.7659 54.5783 13.1917C54.5783 9.78905 57.5198 7.02209 62.3433 7.02209C65.5963 7.02209 68.2885 8.00675 70.3201 9.87631L67.9021 13.067C66.2444 11.534 64.0383 10.8236 62.0441 10.8236C60.0499 10.8236 59.0404 11.6836 59.0404 12.905C59.0404 14.2885 60.7604 14.7123 63.116 15.2731C66.4937 16.0459 70.7813 17.0555 70.7813 21.5923C70.7813 25.3314 68.114 28.1607 62.5925 28.1607C58.6664 28.1607 55.8496 26.8395 53.9053 24.9077L56.2983 21.5923H56.2859Z" fill="white"/>
<path d="M82.5472 27.7868V11.1601H76.5646V7.32129H92.8797V11.1601H86.9345V27.7868H82.5472Z" fill="white"/>
<path d="M112.36 27.7868L111.077 24.2596H101.941L100.657 27.7868H95.8708L103.785 7.32129H109.245L117.134 27.7868H112.385H112.36ZM106.502 11.0978L103.1 20.4831H109.88L106.502 11.0978Z" fill="white"/>
<path d="M134.895 27.7868L130.882 20.4581H127.691V27.7868H123.341V7.32129H132.913C137.176 7.32129 139.781 10.1132 139.781 13.9146C139.781 17.7161 137.513 19.461 135.306 19.9845L139.906 27.7744H134.908L134.895 27.7868ZM132.265 11.0729H127.691V16.719H132.265C134.01 16.719 135.331 15.6097 135.331 13.9022C135.331 12.1946 134.01 11.0853 132.265 11.0853V11.0729Z" fill="white"/>
<path d="M161.493 27.7868L151.734 14.0393V27.7868H147.384V7.32129H151.858L161.343 20.5703V7.32129H165.693V27.7868H161.493Z" fill="white"/>
<path d="M174.056 27.7868V7.32129H188.539V11.0604H178.419V15.51H188.327V19.2491H178.419V23.9978H188.539V27.7744H174.056V27.7868Z" fill="white"/>
<path d="M200.991 27.7868V11.1601H195.008V7.32129H211.323V11.1601H205.378V27.7868H200.991Z" fill="white"/>
<path fill-rule="evenodd" clip-rule="evenodd" d="M7.82771 29.5207C7.95918 29.5061 8.13884 29.4749 8.3779 29.4123C9.26395 29.1804 10.5007 28.6236 12.0273 27.7027C13.7167 26.6836 15.6491 25.2876 17.6925 23.5873C17.0268 22.965 16.3595 22.3199 15.694 21.6544C15.0285 20.9889 14.3834 20.3215 13.7611 19.6559L13.7482 19.6714L11.2373 16.8465L11.2482 16.8336C9.28318 14.5103 7.64717 12.2721 6.44391 10.2773C5.43974 8.61257 4.68035 7.0251 4.31873 5.64327C3.9954 4.40775 3.81085 2.62071 5.05641 1.37515C6.30197 0.129588 8.08901 0.31414 9.32453 0.637469C10.7064 0.999085 12.2938 1.75848 13.9586 2.76265C15.2814 3.56057 16.7112 4.5488 18.202 5.69707L15.5542 8.3558L15.5877 8.40519C14.3226 7.44606 13.1238 6.62583 12.0273 5.96441C10.5007 5.04356 9.26395 4.48667 8.3779 4.25479C8.13884 4.19223 7.95918 4.16099 7.82771 4.14645C7.84225 4.27792 7.87349 4.45758 7.93606 4.69664C8.16793 5.58269 8.72482 6.8194 9.64567 8.34601C10.6648 10.0355 12.0608 11.9678 13.7611 14.0112C14.3834 13.3456 15.0285 12.6782 15.694 12.0127C16.3595 11.3472 17.0268 10.7021 17.6925 10.0798C17.6903 10.078 17.6881 10.0762 17.6859 10.0743L20.4964 7.55136C20.5025 7.55655 20.5087 7.56174 20.5148 7.56694C22.838 5.60192 25.0763 3.9659 27.0711 2.76264C28.7358 1.75847 30.3233 0.999072 31.7051 0.637454C32.9406 0.314126 34.7277 0.129575 35.9732 1.37514C37.2188 2.6207 37.0343 4.40774 36.7109 5.64326C36.3493 7.02509 35.5899 8.61256 34.5857 10.2773C33.7416 11.6767 32.6845 13.1959 31.4502 14.7803L28.7805 12.12C29.8098 10.7762 30.6855 9.50403 31.384 8.346C32.3048 6.81938 32.8617 5.58268 33.0936 4.69663C33.1562 4.45757 33.1874 4.27791 33.2019 4.14643C33.0705 4.16098 32.8908 4.19222 32.6517 4.25478C31.7657 4.48666 30.529 5.04355 29.0024 5.9644C27.3129 6.98348 25.3806 8.37955 23.3372 10.0798C24.0028 10.7021 24.6701 11.3472 25.3357 12.0127C26.0012 12.6782 26.6462 13.3456 27.2686 14.0112L27.2732 14.0056L29.7824 16.8324L29.7814 16.8336C31.7465 19.1568 33.3825 21.395 34.5857 23.3898C35.5899 25.0546 36.3493 26.642 36.7109 28.0239C37.0342 29.2594 37.2188 31.0464 35.9732 32.292C34.7277 33.5375 32.9406 33.353 31.7051 33.0297C30.3233 32.668 28.7358 31.9086 27.0711 30.9045C25.6855 30.0687 24.1826 29.0242 22.6152 27.8056L25.3376 25.1826C26.6411 26.1759 27.8757 27.0231 29.0024 27.7027C30.529 28.6236 31.7657 29.1805 32.6517 29.4123C32.8908 29.4749 33.0705 29.5061 33.2019 29.5207C33.1874 29.3892 33.1562 29.2095 33.0936 28.9705C32.8617 28.0844 32.3048 26.8477 31.384 25.3211C30.3649 23.6316 28.9688 21.6993 27.2686 19.6559C26.6462 20.3215 26.0012 20.9889 25.3357 21.6544C24.7436 22.2465 24.1501 22.8224 23.5576 23.3804L20.5218 26.1061L20.5148 26.1002C18.1916 28.0652 15.9534 29.7012 13.9586 30.9045C12.2938 31.9086 10.7064 32.668 9.32453 33.0296C8.08901 33.353 6.30197 33.5375 5.05641 32.292C3.81085 31.0464 3.9954 29.2594 4.31873 28.0238C4.68035 26.642 5.43975 25.0545 6.44392 23.3898C7.29732 21.975 8.36843 20.4377 9.6202 18.8345L12.299 21.4822C11.2481 22.8499 10.3554 24.1444 9.64567 25.3211C8.72482 26.8477 8.16793 28.0844 7.93606 28.9705C7.8735 29.2095 7.84225 29.3892 7.82771 29.5207ZM22.6917 19.0104C23.4198 18.2823 24.1193 17.5549 24.7873 16.8336C24.1193 16.1122 23.4198 15.3848 22.6917 14.6567C21.9636 13.9286 21.2362 13.2291 20.5148 12.5611C19.7934 13.2291 19.0661 13.9286 18.338 14.6567C17.6098 15.3848 16.9103 16.1122 16.2424 16.8336C16.9103 17.5549 17.6098 18.2823 18.3379 19.0104C19.0661 19.7386 19.7934 20.438 20.5148 21.106C21.2362 20.438 21.9636 19.7386 22.6917 19.0104Z" fill="white"/>
<path d="M38.0639 13.3288L38.1512 14.5627C38.2509 16.0334 39.4225 17.2175 40.8932 17.3048L42.1271 17.392L40.8932 17.4792C39.4225 17.579 38.2384 18.7505 38.1512 20.2213L38.0639 21.4552L37.9767 20.2213C37.877 18.7505 36.7054 17.5665 35.2346 17.4792L34.0007 17.392L35.2346 17.3048C36.7054 17.205 37.8894 16.0334 37.9767 14.5627L38.0639 13.3288Z" fill="white"/>
<path d="M3.05303 10.487L3.09042 11.1351C3.15274 12.1198 3.93796 12.8925 4.9226 12.9673L5.57071 13.0047L4.9226 13.0421C3.93796 13.1044 3.1652 13.8896 3.09042 14.8743L3.05303 15.5224L3.01564 14.8743C2.95332 13.8896 2.1681 13.1169 1.18346 13.0421L0.535339 13.0047L1.18346 12.9673C2.1681 12.905 2.94085 12.1198 3.01564 11.1351L3.05303 10.487Z" fill="white"/>
<path d="M5.30902 17.1177C5.35887 17.8282 5.91974 18.389 6.63018 18.4389C5.91974 18.4888 5.35887 19.0496 5.30902 19.7601C5.25916 19.0496 4.69829 18.4888 3.98785 18.4389C4.69829 18.389 5.25916 17.8282 5.30902 17.1177Z" fill="white"/>
</svg>
